<svg width="18" height="26" viewBox="0 0 18 26" fill="none" xmlns="http://www.w3.org/2000/svg"><path d="M10.932 1.084c-2.197 0-3.863.689-4.89 1.907-1.027 1.218-1.39 2.845-1.39 4.629v1.408H2.995c-.22 0-.43.084-.585.233a.778.778 0 0 0-.243.562v3.972c0 .21.087.413.243.562a.847.847 0 0 0 .585.232h1.657v9.534c0 .21.088.413.243.562a.847.847 0 0 0 .586.232h4.97c.22 0 .43-.083.586-.232a.778.778 0 0 0 .243-.562v-9.534h3.314a.85.85 0 0 0 .525-.18.79.79 0 0 0 .287-.459l.828-3.972a.762.762 0 0 0-.172-.659.823.823 0 0 0-.286-.214.858.858 0 0 0-.354-.077H11.28V7.286c0-.385.026-.382.142-.455.117-.072.537-.186 1.275-.186h2.725c.22 0 .43-.084.586-.233a.778.778 0 0 0 .242-.561V2.673a.772.772 0 0 0-.151-.458.825.825 0 0 0-.399-.29s-2.385-.841-4.768-.841Zm0 1.589c1.568 0 3.021.405 3.662.597v1.786h-1.897c-.867 0-1.571.067-2.176.444-.605.377-.898 1.098-.898 1.786v2.537c0 .21.087.413.243.562a.847.847 0 0 0 .585.232h3.96l-.497 2.384H10.45c-.22 0-.43.083-.585.232a.778.778 0 0 0-.243.562v9.533H6.309v-9.533a.778.778 0 0 0-.243-.562.847.847 0 0 0-.585-.232H3.824v-2.384H5.48c.22 0 .43-.083.585-.232a.778.778 0 0 0 .243-.562V7.62c0-1.573.336-2.817 1.021-3.63.686-.813 1.744-1.317 3.602-1.317Z" fill="#A9ABB2"/></svg>