<svg width="26" height="26" viewBox="0 0 26 26" fill="none" xmlns="http://www.w3.org/2000/svg"><path d="M7.966 1C4.13 1 1 4.13 1 7.966v10.068C1 21.87 4.13 25 7.966 25h10.068C21.87 25 25 21.87 25 18.034V7.966C25 4.13 21.87 1 18.034 1H7.966Zm0 1.846h10.068a5.105 5.105 0 0 1 5.12 5.12v10.068a5.105 5.105 0 0 1-5.12 5.12H7.966a5.105 5.105 0 0 1-5.12-5.12V7.966a5.105 5.105 0 0 1 5.12-5.12Zm11.957 1.846a1.385 1.385 0 1 0 0 2.77 1.385 1.385 0 0 0 0-2.77ZM13 6.538c-3.559 0-6.462 2.903-6.462 6.462 0 3.559 2.903 6.462 6.462 6.462 3.559 0 6.462-2.903 6.462-6.462 0-3.559-2.903-6.462-6.462-6.462Zm0 1.847A4.601 4.601 0 0 1 17.615 13 4.601 4.601 0 0 1 13 17.615 4.601 4.601 0 0 1 8.385 13 4.601 4.601 0 0 1 13 8.385Z" fill="#A9ABB2"/></svg>