<?xml version="1.0" encoding="utf-8"?>
<svg width="284" height="282" viewBox="0 0 284 282" xmlns="http://www.w3.org/2000/svg" xmlns:xlink="http://www.w3.org/1999/xlink">
    <view id="image-airplane" viewBox="0 0 158 142" />
    <svg width="158" height="142" fill="none" viewBox="-1 -1 158 142" xmlns="http://www.w3.org/2000/svg">
        <path
            d="M24.913 128.426c40.973 4.065 66.258-8.801 62.799-18.763-3.366-9.692-18.81-2.878-11.528 6.598 7.999 10.409 71.197 23.456 77.527-1.182 6.001-23.355-38.775-50.135-60.979-55.946"
            stroke="#4F4F4F"
            stroke-width="2"
            stroke-dasharray="4 4"
        />
        <path d="m61.366 17.335-55.67 9.044c-2.015.33-2.87 2.842-1.358 4.31l39.97 39.986c1.516 1.531 4.14.542 4.313-1.562l1.62-19.194c.345-4.271 1.708-8.455 3.913-12.161l9.825-16.645c1.072-1.82-.472-4.114-2.613-3.778Z" fill="#fff" />
        <path d="M26.554 35.12s-23.73-5.898-22.28-4.428l40.034 39.984c1.515 1.531 4.139.541 4.313-1.563l1.325-15.241c.266-6.366-3.753-12.125-9.72-14.122l-13.672-4.63Z" fill="#FC0" />
        <path
            d="M1.874 27.542c.51-1.609 1.861-2.74 3.497-3.057l55.733-9.046a4.497 4.497 0 0 1 4.379 1.867c1.004 1.424 1.01 3.267.116 4.763l-5.183 8.714c-.536.91-1.728 1.21-2.572.67-.908-.538-1.206-1.734-.668-2.58l5.183-8.715c.178-.324.042-.573-.026-.698s-.265-.308-.645-.293l-55.73 9.11a.62.62 0 0 0-.49.463c-.056.193-.112.386.15.63l39.968 39.922c.263.245.514.171.64.167.125-.069.373-.205.424-.525l1.154-13.074c.049-.383.032-.827.08-1.21.024-6.103-3.855-11.485-9.691-13.361L25.75 37.313c-1.026-.343-1.573-1.403-1.23-2.369.342-1.03 1.398-1.579 2.362-1.234l12.442 3.977c7.953 2.558 12.994 10.184 12.295 18.537l-1.154 13.074c-.125 1.72-1.274 3.162-2.897 3.796a5.257 5.257 0 0 1-1.385.244c-1.202.045-2.36-.42-3.28-1.274L2.935 32.142c-1.19-1.29-1.57-2.992-1.06-4.6Z"
            fill="#4F4F4F"
            stroke="#F2F2F3"
        />
        <path
            d="m72.735 45.73.002-.01.003-.008c.256-.771-.152-1.53-.886-1.73l-.011-.002-.01-.004-12.059-3.864-.005-.001c-.765-.255-1.52.15-1.72.89l-.004.013-.005.013c-.255.771.153 1.53.887 1.73l.011.002.01.004 12.058 3.863.028.01.027.011c.08.037.141.05.195.057.06.007.118.006.216.002.555-.021 1.102-.422 1.263-.977ZM78.48 56.952l.003-.01.003-.008c.256-.771-.152-1.53-.887-1.729l-.01-.003-.012-.004-20.461-6.595-.005-.002c-.765-.255-1.52.151-1.72.89l-.004.014-.004.013c-.256.771.152 1.53.887 1.73l.01.002.012.004 20.454 6.593c.177.051.366.085.472.081.555-.02 1.101-.422 1.263-.976Z"
            fill="#4F4F4F"
            stroke="#F2F2F3"
        />
    </svg>
    <view id="image-all-v" viewBox="158 0 54 54" />
    <svg width="54" height="54" fill="none" viewBox="-1 -1 54 54" x="158" xmlns="http://www.w3.org/2000/svg">
        <rect x="1" y="1" width="50" height="50" rx="25" fill="#000" fill-opacity=".1" stroke="#fff" />
        <path d="M19 25a1 1 0 1 0 0 2v-2Zm14.707 1.707a1 1 0 0 0 0-1.414l-6.364-6.364a1 1 0 0 0-1.414 1.414L31.586 26l-5.657 5.657a1 1 0 0 0 1.414 1.414l6.364-6.364ZM19 27h14v-2H19v2Z" fill="#E0E0E0" />
    </svg>
    <view id="image-alphabetical-sort" viewBox="212 156 37 28" />
    <svg width="37" height="28" fill="none" viewBox="-1 -1 37 28" x="212" y="156" xmlns="http://www.w3.org/2000/svg">
        <rect width="35" height="26" rx="4" fill="#fff" />
        <path
            d="m3.776 17 3.696-8.806c.177-.42.378-.71.602-.868.233-.159.57-.238 1.008-.238.42 0 .747.084.98.252.243.159.453.443.63.854L14.388 17h-1.946l-1.008-2.478H6.716L5.722 17H3.776Zm5.026-7.784-1.61 3.99h3.766l-1.596-3.99c-.103-.27-.196-.406-.28-.406-.084 0-.177.135-.28.406Zm5.916 4.732v-1.442h4.998v1.442h-4.998ZM29.762 17h-1.849V9.37c0-.28-.046-.467-.14-.56-.093-.093-.28-.14-.56-.14h-2.982c-.56 0-.933.121-1.12.364-.177.243-.265.663-.265 1.26 0 .625.074 1.083.224 1.372.158.29.476.434.951.434h1.904c.271 0 .476.06.616.182.14.112.21.27.21.476v.224c0 .224-.154.5-.462.826L23.125 17h-2.38l3.444-3.36v-.07h-.98c-1.511 0-2.267-1.092-2.267-3.276 0-1.027.186-1.797.56-2.31.382-.523 1.012-.784 1.89-.784h4.942c.951 0 1.428.49 1.428 1.47V17Z"
            fill="currentColor"
        />
    </svg>
    <view id="image-arrow" viewBox="184 256 18 18" />
    <svg width="18" height="18" fill="none" viewBox="-1 -1 18 18" x="184" y="256" xmlns="http://www.w3.org/2000/svg">
        <path d="M1 7a1 1 0 0 0 0 2V7Zm14.707 1.707a1 1 0 0 0 0-1.414L9.343.929A1 1 0 0 0 7.93 2.343L13.586 8l-5.657 5.657a1 1 0 1 0 1.414 1.414l6.364-6.364ZM1 9h14V7H1v2Z" fill="#E0E0E0" />
    </svg>
    <view id="image-arrow-view-down" viewBox="212 184 14 9" />
    <svg width="14" height="9" fill="none" viewBox="-1 -1 14 9" x="212" y="184" xmlns="http://www.w3.org/2000/svg">
        <path d="M6.53 6.53a.75.75 0 0 1-1.06 0L.697 1.757a.75.75 0 0 1 1.06-1.06L6 4.939 10.243.697a.75.75 0 0 1 1.06 1.06L6.53 6.53ZM6.75 5v1h-1.5V5h1.5Z" fill="#4F4F4F" />
    </svg>
    <view id="image-ascending_sorting" viewBox="254 30 28 28" />
    <svg width="28" height="28" fill="none" viewBox="-1 -1 28 28" x="254" y="30" xmlns="http://www.w3.org/2000/svg">
        <rect width="26" height="26" rx="4" fill="#fff" />
        <path
            d="M4.667 5.5v1.667H8V5.5H4.667ZM18 5.5v11.667h-1.666l2.5 3.333 2.5-3.333h-1.667V5.5H18ZM4.667 8.833V10.5h5V8.833h-5Zm0 3.334v1.666h6.667v-1.666H4.667Zm0 3.333v1.667H13V15.5H4.667Zm0 3.333V20.5h10v-1.667h-10Z"
            fill="#828282"
        />
    </svg>
    <view id="image-availability" viewBox="232 194 22 22" />
    <svg width="22" height="22" fill="none" viewBox="-1 -1 22 22" x="232" y="194" xmlns="http://www.w3.org/2000/svg">
        <path
            d="M10 1.875A8.11 8.11 0 0 0 1.875 10 8.11 8.11 0 0 0 10 18.125 8.11 8.11 0 0 0 18.125 10c0-.874-.117-1.746-.43-2.559l-1.015.997c.124.5.195 1 .195 1.562A6.854 6.854 0 0 1 10 16.875 6.854 6.854 0 0 1 3.125 10 6.854 6.854 0 0 1 10 3.125c1.875 0 3.56.747 4.746 1.934l.879-.88A7.928 7.928 0 0 0 10 1.876Zm7.05 2.676L10 11.6 7.324 8.927l-.898.898L9.55 12.95l.449.43.45-.43 7.5-7.5-.9-.898Z"
            fill="currentColor"
        />
    </svg>
    <view id="image-back" viewBox="202 256 11 18" />
    <svg width="11" height="18" fill="none" viewBox="-1 -1 11 18" x="202" y="256" xmlns="http://www.w3.org/2000/svg">
        <path d="M.293 7.293a1 1 0 0 0 0 1.414l6.364 6.364a1 1 0 0 0 1.414-1.414L2.414 8l5.657-5.657A1 1 0 0 0 6.657.93L.293 7.293ZM2 7H1v2h1V7Z" fill="#828282" />
    </svg>
    <view id="image-basket" viewBox="52 142 42 42" />
    <svg width="42" height="42" fill="none" viewBox="-1 -1 42 42" x="52" y="142" xmlns="http://www.w3.org/2000/svg">
        <rect width="40" height="40" rx="20" fill="#FC0" />
        <path
            d="M26.563 21.008a.673.673 0 0 1-.657.492h-8.011l.19.875h7.33c.41 0 .737.41.628.82l-.137.657c.52.246.875.765.875 1.367 0 .847-.71 1.531-1.531 1.531a1.529 1.529 0 0 1-1.531-1.531c0-.41.164-.793.437-1.094h-5.715c.274.3.465.684.465 1.094 0 .847-.71 1.531-1.531 1.531a1.529 1.529 0 0 1-1.531-1.531c0-.547.3-1.04.765-1.313L14.668 14.5h-1.887a.632.632 0 0 1-.656-.656v-.438c0-.355.273-.656.656-.656h2.79c.3 0 .574.246.656.547l.246 1.203H27.19c.438 0 .739.41.657.82l-1.285 5.688Z"
            fill="#333"
        />
    </svg>
    <view id="image-bb" viewBox="213 256 18 17" />
    <svg width="18" height="17" fill="none" viewBox="-1 -1 18 17" x="213" y="256" xmlns="http://www.w3.org/2000/svg">
        <path
            d="M14.563 9.008a.673.673 0 0 1-.657.492H5.895l.19.875h7.33c.41 0 .737.41.628.82l-.137.657c.52.246.875.765.875 1.367 0 .847-.71 1.531-1.531 1.531a1.529 1.529 0 0 1-1.531-1.531c0-.41.164-.793.437-1.094H6.441c.274.3.465.684.465 1.094 0 .847-.71 1.531-1.531 1.531a1.529 1.529 0 0 1-1.531-1.531c0-.547.3-1.04.765-1.313L2.668 2.5H.781a.632.632 0 0 1-.656-.656v-.438c0-.355.273-.656.656-.656h2.79c.3 0 .574.246.656.547L4.473 2.5H15.19c.438 0 .739.41.657.82l-1.286 5.688Z"
            fill="#333"
        />
    </svg>
    <view id="image-bm-icon-1" viewBox="178 142 34 34" />
    <svg width="34" height="34" fill="none" viewBox="-1 -1 34 34" x="178" y="142" xmlns="http://www.w3.org/2000/svg">
        <path
            d="M16 3.424 3.15 16.274 4.474 17.6l1.212-1.212v10.861h8.438v-8.437h3.75v8.438h8.437V16.388l1.212 1.212 1.326-1.326-4.413-4.413-1.875-1.875L16 3.424Zm0 2.651 8.437 8.438v10.862H19.75v-8.438h-7.5v8.438H7.562V14.513L16 6.075Z"
            fill="#828282"
        />
    </svg>
    <view id="image-bm-icon-2" viewBox="0 194 34 34" />
    <svg width="34" height="34" fill="none" viewBox="-1 -1 34 34" y="194" xmlns="http://www.w3.org/2000/svg"><path d="M5 5v22h22V5H5Zm2 2h18v18H7V7Zm3 3v2h12v-2H10Zm0 5v2h12v-2H10Zm0 5v2h6v-2h-6Z" fill="#828282" /></svg>
    <view id="image-bm-icon-3" viewBox="34 194 34 34" />
    <svg width="34" height="34" fill="none" viewBox="-1 -1 34 34" x="34" y="194" xmlns="http://www.w3.org/2000/svg">
        <path
            d="M16.265 7.2H9.816l.57 2.2h15.906l-1.34 8.8H11.873L8.88 6.65C8.626 5.67 7.717 5 6.67 5H4.14C3.512 5 3 5.494 3 6.1c0 .606.512 1.1 1.14 1.1h2.53l2.994 11.55c.254.98 1.162 1.65 2.21 1.65h13.078c1.029 0 1.902-.657 2.173-1.616L29 7.2H16.265Zm7.261 13.2c-1.875 0-3.42 1.491-3.42 3.3 0 1.809 1.545 3.3 3.42 3.3 1.876 0 3.421-1.491 3.421-3.3 0-1.809-1.545-3.3-3.42-3.3Zm-10.263 0c-1.875 0-3.42 1.491-3.42 3.3 0 1.809 1.545 3.3 3.42 3.3 1.876 0 3.421-1.491 3.421-3.3 0-1.809-1.546-3.3-3.42-3.3Zm2.338-13.2h2.494-4.953 2.459Zm6.589 0h1.572-2.46.888Zm-8.927 15.4c.642 0 1.14.481 1.14 1.1 0 .619-.498 1.1-1.14 1.1-.641 0-1.14-.481-1.14-1.1 0-.619.499-1.1 1.14-1.1Zm10.263 0c.642 0 1.14.481 1.14 1.1 0 .619-.498 1.1-1.14 1.1-.641 0-1.14-.481-1.14-1.1 0-.619.499-1.1 1.14-1.1Z"
            fill="#828282"
            stroke="#fff"
            stroke-width=".2"
        />
    </svg>
    <view id="image-bm-icon-4" viewBox="68 194 34 34" />
    <svg width="34" height="34" fill="none" viewBox="-1 -1 34 34" x="68" y="194" xmlns="http://www.w3.org/2000/svg">
        <path
            d="M20.875 6.25C17.74 6.25 16 8.514 16 8.514S14.262 6.25 11.125 6.25a5.958 5.958 0 0 0-5.958 5.958c0 4.519 5.321 8.898 6.804 10.281a242.133 242.133 0 0 0 4.03 3.64s2.32-2.047 4.028-3.64c1.483-1.383 6.805-5.762 6.805-10.28a5.958 5.958 0 0 0-5.959-5.959Zm-1.83 14.203c-.191.173-.358.323-.493.45-.814.759-1.776 1.628-2.552 2.324a191.098 191.098 0 0 1-2.55-2.324 51.97 51.97 0 0 0-.495-.45c-1.538-1.39-5.621-5.082-5.621-8.245 0-2.09 1.7-3.791 3.791-3.791 1.98 0 3.127 1.38 3.157 1.417L16 11.667l1.718-1.833c.011-.014 1.178-1.417 3.157-1.417 2.091 0 3.792 1.7 3.792 3.791 0 3.163-4.083 6.855-5.621 8.245Z"
            fill="#828282"
        />
    </svg>
    <view id="image-bm-icon-5" viewBox="102 194 34 34" />
    <svg width="34" height="34" fill="none" viewBox="-1 -1 34 34" x="102" y="194" xmlns="http://www.w3.org/2000/svg">
        <path
            d="M16 5c-3.855 0-7 3.145-7 7 0 2.41 1.23 4.55 3.094 5.813C8.527 19.343 6 22.883 6 27h2c0-4.43 3.57-8 8-8s8 3.57 8 8h2c0-4.117-2.527-7.656-6.094-9.188A7.024 7.024 0 0 0 23 12c0-3.855-3.145-7-7-7Zm0 2c2.773 0 5 2.227 5 5s-2.227 5-5 5-5-2.227-5-5 2.227-5 5-5Z"
            fill="#828282"
        />
    </svg>
    <view id="image-clock" viewBox="56 228 26 26" />
    <svg width="26" height="26" fill="none" viewBox="-1 -1 26 26" x="56" y="228" xmlns="http://www.w3.org/2000/svg">
        <path
            d="M12 3c-4.963 0-9 4.037-9 9s4.037 9 9 9 9-4.037 9-9-4.037-9-9-9Zm-.773 1.547h.023a.753.753 0 0 0 1.5 0 7.458 7.458 0 0 1 6.703 6.703.753.753 0 0 0 0 1.5 7.458 7.458 0 0 1-6.703 6.703.753.753 0 0 0-1.5 0 7.458 7.458 0 0 1-6.703-6.703.753.753 0 0 0 0-1.5 7.46 7.46 0 0 1 6.68-6.703Zm.023 2.203v5.555l.21.234 3 3 1.08-1.078-2.79-2.79V6.75h-1.5Z"
            fill="#94979F"
        />
    </svg>
    <view id="image-close" viewBox="26 256 24 24" />
    <svg width="24" height="24" fill="none" viewBox="-1 -1 24 24" x="26" y="256" xmlns="http://www.w3.org/2000/svg"><path d="m1 1 20 20M1 21 21 1" stroke="#828282" stroke-width="2" stroke-linecap="round" /></svg>
    <view id="image-close-catalog" viewBox="254 0 30 30" />
    <svg width="30" height="30" fill="none" viewBox="-1 -1 30 30" x="254" xmlns="http://www.w3.org/2000/svg"><path d="m1 1 26 26M1 27 27 1" stroke="#333" stroke-width="2" stroke-linecap="round" /></svg>
    <view id="image-col-items" viewBox="74 256 22 22" />
    <svg width="22" height="22" fill="none" viewBox="-1 -1 22 22" x="74" y="256" xmlns="http://www.w3.org/2000/svg">
        <path
            d="M7.5 8.333H4.168a.834.834 0 0 1-.833-.833V4.166c0-.46.373-.833.833-.833h3.334c.46 0 .833.373.833.833V7.5c0 .46-.373.833-.833.833Zm8.334 0h-3.333a.834.834 0 0 1-.834-.833V4.166c0-.46.374-.833.834-.833h3.333c.46 0 .833.373.833.833V7.5c0 .46-.373.833-.833.833Zm-8.333 8.333H4.167a.834.834 0 0 1-.833-.833V12.5c0-.46.373-.834.833-.834h3.334c.46 0 .833.374.833.834v3.333c0 .46-.373.833-.833.833Zm8.333 0h-3.333a.834.834 0 0 1-.834-.833V12.5c0-.46.374-.834.834-.834h3.333c.46 0 .833.374.833.834v3.333c0 .46-.373.833-.833.833Z"
            stroke="currentColor"
            stroke-width="1.5"
        />
    </svg>
    <view id="image-comparison" viewBox="94 142 42 42" />
    <svg width="42" height="42" fill="none" viewBox="-1 -1 42 42" x="94" y="142" xmlns="http://www.w3.org/2000/svg">
        <rect width="40" height="40" rx="20" fill="transparent" />
        <path d="M13 11v18h5.09V11H13Zm8.91 5.143V29H27V16.143h-5.09Z" fill="currentColor" />
    </svg>
    <view id="image-delete" viewBox="264 228 20 20" />
    <svg width="20" height="20" fill="none" viewBox="-1 -1 20 20" x="264" y="228" xmlns="http://www.w3.org/2000/svg"><path d="m1 1 16 16M1 17 17 1" stroke="currentColor" stroke-width="2" stroke-linecap="round" /></svg>
    <view id="image-descending_sorting" viewBox="254 58 28 28" />
    <svg width="28" height="28" fill="none" viewBox="-1 -1 28 28" x="254" y="58" xmlns="http://www.w3.org/2000/svg">
        <path
            d="M5.5 5.5v1.667h9.167V5.5H5.5Zm11.667 0v11.667h-2.5L18 20.5l3.333-3.333h-2.5V5.5h-1.666ZM5.5 8.833V10.5H13V8.833H5.5Zm0 3.334v1.666h5.833v-1.666H5.5Zm0 3.333v1.667h4.167V15.5H5.5Zm0 3.333V20.5H8v-1.667H5.5Z"
            fill="currentColor"
        />
    </svg>
    <view id="image-done" viewBox="136 194 32 32" />
    <svg width="32" height="32" fill="none" viewBox="-1 -1 32 32" x="136" y="194" xmlns="http://www.w3.org/2000/svg"><path d="M25.366 6.616 11.25 20.732l-5.366-5.366-1.768 1.768 7.134 7.134L27.134 8.384l-1.768-1.768Z" fill="#333" /></svg>
    <view id="image-download" viewBox="168 194 32 32" />
    <svg width="32" height="32" fill="none" viewBox="-1 -1 32 32" x="168" y="194" xmlns="http://www.w3.org/2000/svg">
        <path
            d="M13.125 1.875V3.75H15V1.875h-1.875Zm0 3.75V7.5H15V5.625h-1.875Zm0 3.75v8.115L8.848 13.39l-1.29 1.347 6.505 6.248 6.503-6.248-1.289-1.347L15 17.49V9.375h-1.875ZM1.875 18.75v4.688a2.823 2.823 0 0 0 2.813 2.812h18.75a2.823 2.823 0 0 0 2.812-2.813V18.75h-1.875v4.688c0 .527-.41.937-.938.937H4.688a.926.926 0 0 1-.937-.938V18.75H1.875Z"
            fill="#828282"
        />
    </svg>
    <view id="image-facebook" viewBox="254 86 20 28" />
    <svg width="20" height="28" fill="none" viewBox="-1 -1 20 28" x="254" y="86" xmlns="http://www.w3.org/2000/svg">
        <path
            d="M10.932 1.084c-2.197 0-3.863.689-4.89 1.907-1.027 1.218-1.39 2.845-1.39 4.629v1.408H2.995c-.22 0-.43.084-.585.233a.778.778 0 0 0-.243.562v3.972c0 .21.087.413.243.562a.847.847 0 0 0 .585.232h1.657v9.534c0 .21.088.413.243.562a.847.847 0 0 0 .586.232h4.97c.22 0 .43-.083.586-.232a.778.778 0 0 0 .243-.562v-9.534h3.314a.85.85 0 0 0 .525-.18.79.79 0 0 0 .287-.459l.828-3.972a.762.762 0 0 0-.172-.659.823.823 0 0 0-.286-.214.858.858 0 0 0-.354-.077H11.28V7.286c0-.385.026-.382.142-.455.117-.072.537-.186 1.275-.186h2.725c.22 0 .43-.084.586-.233a.778.778 0 0 0 .242-.561V2.673a.772.772 0 0 0-.151-.458.825.825 0 0 0-.399-.29s-2.385-.841-4.768-.841Zm0 1.589c1.568 0 3.021.405 3.662.597v1.786h-1.897c-.867 0-1.571.067-2.176.444-.605.377-.898 1.098-.898 1.786v2.537c0 .21.087.413.243.562a.847.847 0 0 0 .585.232h3.96l-.497 2.384H10.45c-.22 0-.43.083-.585.232a.778.778 0 0 0-.243.562v9.533H6.309v-9.533a.778.778 0 0 0-.243-.562.847.847 0 0 0-.585-.232H3.824v-2.384H5.48c.22 0 .43-.083.585-.232a.778.778 0 0 0 .243-.562V7.62c0-1.573.336-2.817 1.021-3.63.686-.813 1.744-1.317 3.602-1.317Z"
            fill="currentColor"
        />
    </svg>
    <view id="image-favorites" viewBox="136 142 42 42" />
    <svg width="42" height="42" fill="none" viewBox="-1 -1 42 42" x="136" y="142" xmlns="http://www.w3.org/2000/svg">
        <rect width="40" height="40" rx="20" fill="transparent" />
        <path
            d="M25.4 10c-3.474 0-5.4 2.506-5.4 2.506S18.074 10 14.6 10A6.596 6.596 0 0 0 8 16.594c0 5 5.894 9.847 7.537 11.378C17.43 29.734 20 32 20 32s2.57-2.266 4.463-4.028C26.106 26.44 32 21.595 32 16.594A6.596 6.596 0 0 0 25.4 10Z"
            fill="currentColor"
        />
    </svg>
    <view id="image-filter" viewBox="254 114 28 28" />
    <svg width="28" height="28" fill="none" viewBox="-1 -1 28 28" x="254" y="114" xmlns="http://www.w3.org/2000/svg">
        <path
            d="M6 5v2.8c0 .697.34 1.35.908 1.749l4.692 3.597V22l2.8-2.833v-6.021l4.692-3.597A2.135 2.135 0 0 0 20 7.8V5H6Zm1.4 1.417h11.2V7.8a.707.707 0 0 1-.306.581l-.011.006-4.818 3.696h-.93L7.717 8.387l-.01-.006a.707.707 0 0 1-.307-.58V6.416Z"
            fill="#828282"
        />
    </svg>
    <view id="image-grey-view-more" viewBox="158 76 52 52" />
    <svg width="52" height="52" fill="none" viewBox="-1 -1 52 52" x="158" y="76" xmlns="http://www.w3.org/2000/svg">
        <rect width="50" height="50" rx="25" fill="#F2F2F3" />
        <path d="M17 24a1 1 0 1 0 0 2v-2Zm15.707 1.707a1 1 0 0 0 0-1.414l-6.364-6.364a1 1 0 0 0-1.414 1.414L30.586 25l-5.657 5.657a1 1 0 0 0 1.414 1.414l6.364-6.364ZM17 26h15v-2H17v2Z" fill="#4F4F4F" />
    </svg>
    <view id="image-high_importance" viewBox="96 256 22 22" />
    <svg width="22" height="22" fill="none" viewBox="-1 -1 22 22" x="96" y="256" xmlns="http://www.w3.org/2000/svg">
        <path
            d="M10 2.5c-4.136 0-7.5 3.364-7.5 7.5s3.364 7.5 7.5 7.5 7.5-3.364 7.5-7.5-3.364-7.5-7.5-7.5Zm0 1.25A6.24 6.24 0 0 1 16.25 10 6.24 6.24 0 0 1 10 16.25 6.24 6.24 0 0 1 3.75 10 6.24 6.24 0 0 1 10 3.75Zm-.625 2.5v5h1.25v-5h-1.25Zm0 6.25v1.25h1.25V12.5h-1.25Z"
            fill="#94979F"
        />
    </svg>
    <view id="image-instagram" viewBox="254 142 28 28" />
    <svg width="28" height="28" fill="none" viewBox="-1 -1 28 28" x="254" y="142" xmlns="http://www.w3.org/2000/svg">
        <path
            d="M7.966 1C4.13 1 1 4.13 1 7.966v10.068C1 21.87 4.13 25 7.966 25h10.068C21.87 25 25 21.87 25 18.034V7.966C25 4.13 21.87 1 18.034 1H7.966Zm0 1.846h10.068a5.105 5.105 0 0 1 5.12 5.12v10.068a5.105 5.105 0 0 1-5.12 5.12H7.966a5.105 5.105 0 0 1-5.12-5.12V7.966a5.105 5.105 0 0 1 5.12-5.12Zm11.957 1.846a1.385 1.385 0 1 0 0 2.77 1.385 1.385 0 0 0 0-2.77ZM13 6.538c-3.559 0-6.462 2.903-6.462 6.462 0 3.559 2.903 6.462 6.462 6.462 3.559 0 6.462-2.903 6.462-6.462 0-3.559-2.903-6.462-6.462-6.462Zm0 1.847A4.601 4.601 0 0 1 17.615 13 4.601 4.601 0 0 1 13 17.615 4.601 4.601 0 0 1 8.385 13 4.601 4.601 0 0 1 13 8.385Z"
            fill="currentColor"
        />
    </svg>
    <view id="image-letter" viewBox="82 228 26 26" />
    <svg width="26" height="26" fill="none" viewBox="-1 -1 26 26" x="82" y="228" xmlns="http://www.w3.org/2000/svg">
        <path d="M2.25 6v13.5h19.5V6H2.25Zm3.234 1.5h13.032L12 11.836 5.484 7.5Zm-1.734.656 7.828 5.227.422.258.422-.258 7.828-5.227V18H3.75V8.156Z" fill="#94979F" />
    </svg>
    <view id="image-location" viewBox="108 228 26 26" />
    <svg width="26" height="26" fill="none" viewBox="-1 -1 26 26" x="108" y="228" xmlns="http://www.w3.org/2000/svg">
        <path
            d="M12 1.5C7.87 1.5 4.5 4.87 4.5 9c0 1.16.475 2.432 1.13 3.773.657 1.348 1.513 2.754 2.374 4.038a67.055 67.055 0 0 0 3.416 4.664l.58.714.58-.714s1.705-2.092 3.422-4.665c.855-1.283 1.71-2.689 2.367-4.037C19.025 11.432 19.5 10.16 19.5 9c0-4.13-3.37-7.5-7.5-7.5ZM12 3c3.322 0 6 2.678 6 6 0 .703-.37 1.87-.979 3.117-.609 1.254-1.44 2.613-2.267 3.867-1.377 2.063-2.314 3.2-2.754 3.75-.44-.55-1.377-1.687-2.754-3.75-.826-1.254-1.658-2.613-2.267-3.867C6.369 10.87 6 9.703 6 9c0-3.322 2.678-6 6-6Zm0 4.5c-.826 0-1.5.674-1.5 1.5s.674 1.5 1.5 1.5 1.5-.674 1.5-1.5-.674-1.5-1.5-1.5Z"
            fill="#94979F"
        />
    </svg>
    <view id="image-menu-catalog" viewBox="158 54 54 22" />
    <svg width="54" height="22" fill="none" viewBox="-1 -1 54 22" x="158" y="54" xmlns="http://www.w3.org/2000/svg"><path d="M1 1h50M1 10h50M1 19h50" stroke="#35363B" stroke-width="2" stroke-linecap="round" /></svg>
    <view id="image-minus" viewBox="212 42 38 38" />
    <svg width="38" height="38" fill="none" viewBox="-1 -1 38 38" x="212" y="42" xmlns="http://www.w3.org/2000/svg">
        <rect width="36" height="36" rx="4" fill="#fff" />
        <path d="M13 18h10" stroke="#828282" stroke-width="2" stroke-linecap="round" />
    </svg>
    <view id="image-ok" viewBox="158 128 16 12" />
    <svg width="16" height="12" fill="none" viewBox="-1 -1 16 12" x="158" y="128" xmlns="http://www.w3.org/2000/svg"><path d="M5.39 10 0 4.36l1.148-1.155L5.4 7.657 12.864 0 14 1.166 5.39 10Z" fill="#6A6E77" /></svg>
    <view id="image-phone" viewBox="134 228 26 26" />
    <svg width="26" height="26" fill="none" viewBox="-1 -1 26 26" x="134" y="228" xmlns="http://www.w3.org/2000/svg">
        <path
            d="M7.25 2A2.258 2.258 0 0 0 5 4.25v15a2.258 2.258 0 0 0 2.25 2.25h9a2.258 2.258 0 0 0 2.25-2.25v-15A2.258 2.258 0 0 0 16.25 2h-9Zm0 1.5h9a.74.74 0 0 1 .75.75v15a.74.74 0 0 1-.75.75h-9a.74.74 0 0 1-.75-.75v-15a.74.74 0 0 1 .75-.75Zm4.5 1.5a.748.748 0 0 0-.75.75c0 .416.334.75.75.75s.75-.334.75-.75a.748.748 0 0 0-.75-.75ZM9.5 17v1.5H14V17H9.5Z"
            fill="#FC0"
        />
    </svg>
    <view id="image-phone-header" viewBox="212 80 38 38" />
    <svg width="38" height="38" fill="none" viewBox="-1 -1 38 38" x="212" y="80" xmlns="http://www.w3.org/2000/svg">
        <path
            d="M25.296 29.44h-.024c-3.908-.128-8.487-3.917-11.641-7.073-3.159-3.157-6.947-7.737-7.069-11.627-.045-1.365 3.305-3.792 3.34-3.817.869-.605 1.834-.39 2.23.159.268.371 2.807 4.218 3.083 4.655.287.453.244 1.127-.114 1.804-.197.376-.85 1.525-1.158 2.062.332.47 1.207 1.627 3.015 3.435 1.81 1.807 2.964 2.685 3.437 3.016.536-.307 1.686-.96 2.061-1.158.667-.353 1.337-.398 1.794-.118.467.287 4.304 2.838 4.658 3.084.296.209.487.566.526.983.036.42-.094.865-.364 1.253-.022.033-2.421 3.341-3.774 3.341Z"
            fill="currentColor"
        />
    </svg>
    <view id="image-pin" viewBox="160 228 26 26" />
    <svg width="26" height="26" fill="none" viewBox="-1 -1 26 26" x="160" y="228" xmlns="http://www.w3.org/2000/svg">
        <path
            d="M12 1.5C7.87 1.5 4.5 4.87 4.5 9c0 1.16.475 2.432 1.13 3.773.657 1.348 1.513 2.754 2.374 4.038a67.055 67.055 0 0 0 3.416 4.664l.58.714.58-.714s1.705-2.092 3.422-4.665c.855-1.283 1.71-2.689 2.367-4.037C19.025 11.432 19.5 10.16 19.5 9c0-4.13-3.37-7.5-7.5-7.5ZM12 3c3.322 0 6 2.678 6 6 0 .703-.37 1.87-.979 3.117-.609 1.254-1.44 2.613-2.267 3.867-1.377 2.063-2.314 3.2-2.754 3.75-.44-.55-1.377-1.687-2.754-3.75-.826-1.254-1.658-2.613-2.267-3.867C6.369 10.87 6 9.703 6 9c0-3.322 2.678-6 6-6Zm0 4.5c-.826 0-1.5.674-1.5 1.5s.674 1.5 1.5 1.5 1.5-.674 1.5-1.5-.674-1.5-1.5-1.5Z"
            fill="#FC0"
        />
    </svg>
    <view id="image-plus" viewBox="50 256 24 24" />
    <svg width="24" height="24" fill="none" viewBox="-1 -1 24 24" x="50" y="256" xmlns="http://www.w3.org/2000/svg"><path d="M1 11h20M11 21V1" stroke="#4F4F4F" stroke-width="2" stroke-linecap="round" /></svg>
    <view id="image-price-list" viewBox="118 256 22 22" />
    <svg width="22" height="22" fill="none" viewBox="-1 -1 22 22" x="118" y="256" xmlns="http://www.w3.org/2000/svg">
        <g clip-path="url(#bna)" fill="currentColor"><path d="M6 4.167v1.667h12.334V4.167H6ZM1 4.167v1.667h3V4.167H1ZM6 9.147v1.667h12.334V9.147H6ZM1 9.147v1.667h3V9.147H1ZM6 14.125v1.666h12.334v-1.666H6ZM1 14.125v1.666h3v-1.666H1Z" /></g>
        <defs>
            <clipPath id="bna"><path fill="#fff" d="M0 0h20v20H0z" /></clipPath>
        </defs>
    </svg>
    <view id="image-print" viewBox="212 0 42 42" />
    <svg width="42" height="42" fill="none" viewBox="-1 -1 42 42" x="212" xmlns="http://www.w3.org/2000/svg">
        <path
            d="M12.5 8.75v5.625H9.687a2.823 2.823 0 0 0-2.812 2.813v7.5A2.823 2.823 0 0 0 9.688 27.5H12.5v3.75h15V27.5h2.813a2.823 2.823 0 0 0 2.812-2.813v-7.5a2.823 2.823 0 0 0-2.813-2.812H27.5V8.75h-15Zm1.875 1.875h11.25v3.75h-11.25v-3.75ZM9.687 16.25h20.626c.527 0 .937.41.937.938v7.5c0 .527-.41.937-.938.937H27.5v-3.75h-15v3.75H9.687a.926.926 0 0 1-.937-.938v-7.5c0-.527.41-.937.938-.937Zm1.876 1.875a.935.935 0 0 0-.938.938c0 .52.418.937.938.937s.937-.418.937-.938a.935.935 0 0 0-.938-.937Zm2.812 5.625h11.25v5.625h-11.25V23.75Z"
            fill="#94979F"
        />
    </svg>
    <view id="image-prod-comp" viewBox="254 170 28 28" />
    <svg width="28" height="28" fill="none" viewBox="-1 -1 28 28" x="254" y="170" xmlns="http://www.w3.org/2000/svg"><path d="M6 4v18h5.09V4H6Zm8.91 5.143V22H20V9.143h-5.09Z" stroke="currentColor" stroke-width="2" /></svg>
    <view id="image-prod-fav" viewBox="254 198 28 28" />
    <svg width="28" height="28" fill="none" viewBox="-1 -1 28 28" x="254" y="198" xmlns="http://www.w3.org/2000/svg">
        <path
            d="M17.875 3.25C14.739 3.25 13 5.514 13 5.514S11.26 3.25 8.125 3.25a5.958 5.958 0 0 0-5.958 5.958c0 4.519 5.32 8.898 6.804 10.281A242.081 242.081 0 0 0 13 23.13s2.32-2.047 4.029-3.64c1.483-1.383 6.804-5.762 6.804-10.28a5.958 5.958 0 0 0-5.958-5.959Zm-1.83 14.203c-.192.173-.359.323-.494.45-.813.759-1.776 1.628-2.551 2.324a191.098 191.098 0 0 1-2.551-2.324 50.666 50.666 0 0 0-.494-.45c-1.539-1.39-5.622-5.082-5.622-8.245 0-2.09 1.701-3.791 3.792-3.791 1.98 0 3.126 1.38 3.157 1.417L13 8.667l1.718-1.833c.01-.014 1.178-1.417 3.157-1.417 2.09 0 3.791 1.7 3.791 3.791 0 3.163-4.083 6.855-5.62 8.245Z"
            fill="currentColor"
        />
    </svg>
    <view id="image-product-basket" viewBox="186 228 26 26" />
    <svg width="26" height="26" fill="none" viewBox="-1 -1 26 26" x="186" y="228" xmlns="http://www.w3.org/2000/svg">
        <path
            d="M5.412 1.996 2 2.014l.01 2 2.07-.01 3.295 7.904-1.197 1.914C5.339 15.161 6.358 17 7.938 17h12.058v-2H7.938c-.112 0-.125-.022-.065-.117L9.049 13h7.469a2 2 0 0 0 1.748-1.03l3.601-6.486A.999.999 0 0 0 20.994 4H6.246l-.834-2.004ZM7.996 18a2 2 0 1 0 0 4 2 2 0 0 0 0-4Zm10 0a2 2 0 1 0 0 4 2 2 0 0 0 0-4Z"
            fill="#333"
        />
    </svg>
    <view id="image-reviews_sorting" viewBox="0 228 28 28" />
    <svg width="28" height="28" fill="none" viewBox="-1 -1 28 28" y="228" xmlns="http://www.w3.org/2000/svg">
        <rect width="26" height="26" rx="4" fill="#fff" />
        <path
            d="M8.333 4v1.667H20V14h1.667V5.667C21.667 4.746 20.92 4 20 4H8.333ZM6.667 7.333c-.917 0-1.659.75-1.659 1.667L5 21.5l3.333-3.333h8.334c.916 0 1.666-.75 1.666-1.667V9c0-.917-.75-1.667-1.666-1.667h-10Zm0 1.667h10v7.5H7.643l-.488.488-.488.489V9Z"
            fill="#828282"
        />
    </svg>
    <view id="image-row-items" viewBox="140 256 22 22" />
    <svg width="22" height="22" fill="none" viewBox="-1 -1 22 22" x="140" y="256" xmlns="http://www.w3.org/2000/svg">
        <path d="M1.666 4.167v1.667h16.667V4.167H1.666Zm0 5v1.667h16.667V9.167H1.666Zm0 5v1.667h16.667v-1.667H1.666Z" fill="currentColor" />
    </svg>
    <view id="image-search-header" viewBox="212 118 38 38" />
    <svg width="38" height="38" fill="none" viewBox="-1 -1 38 38" x="212" y="118" xmlns="http://www.w3.org/2000/svg">
        <path d="M17 25.364c4.418 0 8-3.663 8-8.182S21.418 9 17 9s-8 3.663-8 8.182 3.582 8.182 8 8.182ZM27 27.41l-4.35-4.45" stroke="currentColor" stroke-width="2" stroke-linecap="round" stroke-linejoin="round" />
    </svg>
    <view id="image-select-arrow" viewBox="274 102 10 7" />
    <svg width="10" height="7" fill="none" viewBox="-1 -1 10 7" x="274" y="102" xmlns="http://www.w3.org/2000/svg">
        <path d="M4.354 4.354a.5.5 0 0 1-.708 0L.464 1.172a.5.5 0 1 1 .708-.708L4 3.293 6.828.464a.5.5 0 1 1 .708.708L4.354 4.354ZM4.5 3v1h-1V3h1Z" fill="currentColor" />
    </svg>
    <view id="image-share" viewBox="200 194 32 32" />
    <svg width="32" height="32" fill="none" viewBox="-1 -1 32 32" x="200" y="194" xmlns="http://www.w3.org/2000/svg">
        <path
            d="M21 5c-1.645 0-3 1.355-3 3 0 .191.022.377.057.559l-7.135 4.162A2.97 2.97 0 0 0 9 12c-1.645 0-3 1.355-3 3s1.355 3 3 3a2.97 2.97 0 0 0 1.922-.72l7.135 4.16A2.963 2.963 0 0 0 18 22c0 1.645 1.355 3 3 3s3-1.355 3-3-1.355-3-3-3c-.733 0-1.398.28-1.922.723l-7.135-4.164A2.96 2.96 0 0 0 12 15a2.96 2.96 0 0 0-.057-.559l7.135-4.162A2.97 2.97 0 0 0 21 11c1.645 0 3-1.355 3-3s-1.355-3-3-3Zm0 2c.564 0 1 .436 1 1 0 .564-.436 1-1 1-.564 0-1-.436-1-1 0-.564.436-1 1-1ZM9 14c.564 0 1 .436 1 1 0 .564-.436 1-1 1-.564 0-1-.436-1-1 0-.564.436-1 1-1Zm12 7c.564 0 1 .436 1 1 0 .564-.436 1-1 1-.564 0-1-.436-1-1 0-.564.436-1 1-1Z"
            fill="#4F4F4F"
        />
    </svg>
    <view id="image-shopping-cart" viewBox="212 228 26 26" />
    <svg width="26" height="26" fill="none" viewBox="-1 -1 26 26" x="212" y="228" xmlns="http://www.w3.org/2000/svg">
        <path
            d="M5.412 1.996 2 2.014l.01 2 2.07-.01 3.295 7.904-1.197 1.914C5.339 15.161 6.358 17 7.938 17h12.058v-2H7.938c-.112 0-.125-.022-.065-.117L9.049 13h7.469a2 2 0 0 0 1.748-1.03l3.601-6.486A.999.999 0 0 0 20.994 4H6.246l-.834-2.004ZM7.996 18a2 2 0 1 0 0 4 2 2 0 0 0 0-4Zm10 0a2 2 0 1 0 0 4 2 2 0 0 0 0-4Z"
            fill="#333"
        />
    </svg>
    <view id="image-slider-arrow" viewBox="274 86 10 16" />
    <svg width="10" height="16" fill="none" viewBox="-1 -1 10 16" x="274" y="86" xmlns="http://www.w3.org/2000/svg">
        <path d="M.364 6.364a.9.9 0 0 0 0 1.272l5.727 5.728a.9.9 0 0 0 1.273-1.273L2.273 7l5.091-5.091A.9.9 0 0 0 6.091.636L.364 6.364ZM2 6.1H1v1.8h1V6.1Z" fill="currentColor" />
    </svg>
    <view id="image-smartphone" viewBox="238 228 26 26" />
    <svg width="26" height="26" fill="none" viewBox="-1 -1 26 26" x="238" y="228" xmlns="http://www.w3.org/2000/svg">
        <path
            d="M7.25 2A2.258 2.258 0 0 0 5 4.25v15a2.258 2.258 0 0 0 2.25 2.25h9a2.258 2.258 0 0 0 2.25-2.25v-15A2.258 2.258 0 0 0 16.25 2h-9Zm0 1.5h9a.74.74 0 0 1 .75.75v15a.74.74 0 0 1-.75.75h-9a.74.74 0 0 1-.75-.75v-15a.74.74 0 0 1 .75-.75Zm4.5 1.5a.748.748 0 0 0-.75.75c0 .416.334.75.75.75s.75-.334.75-.75a.748.748 0 0 0-.75-.75ZM9.5 17v1.5H14V17H9.5Z"
            fill="#94979F"
        />
    </svg>
    <view id="image-star-dis" viewBox="231 256 16 17" />
    <svg width="16" height="17" fill="none" viewBox="-1 -1 16 17" x="231" y="256" xmlns="http://www.w3.org/2000/svg">
        <path
            d="M6.068 1.406c.33-.852 1.534-.852 1.864 0l1.11 2.862a1 1 0 0 0 .877.637l3.064.17c.912.051 1.284 1.197.577 1.774l-2.38 1.94a1 1 0 0 0-.335 1.03l.785 2.968c.234.883-.74 1.59-1.508 1.096l-2.58-1.664a1 1 0 0 0-1.084 0l-2.58 1.664c-.767.495-1.742-.213-1.508-1.096l.785-2.968a1 1 0 0 0-.335-1.03L.44 6.848c-.707-.577-.335-1.723.577-1.774l3.064-.17a1 1 0 0 0 .877-.637l1.11-2.862Z"
            fill="#DCDFE0"
        />
    </svg>
    <view id="image-star-en" viewBox="247 256 16 17" />
    <svg width="16" height="17" fill="none" viewBox="-1 -1 16 17" x="247" y="256" xmlns="http://www.w3.org/2000/svg">
        <path
            d="M6.068 1.406c.33-.852 1.534-.852 1.864 0l1.11 2.862a1 1 0 0 0 .877.637l3.064.17c.912.051 1.284 1.197.577 1.774l-2.38 1.94a1 1 0 0 0-.335 1.03l.785 2.968c.234.883-.74 1.59-1.508 1.096l-2.58-1.664a1 1 0 0 0-1.084 0l-2.58 1.664c-.767.495-1.742-.213-1.508-1.096l.785-2.968a1 1 0 0 0-.335-1.03L.44 6.848c-.707-.577-.335-1.723.577-1.774l3.064-.17a1 1 0 0 0 .877-.637l1.11-2.862Z"
            fill="#FC0"
        />
    </svg>
    <view id="image-unavailable" viewBox="162 256 22 22" />
    <svg width="22" height="22" fill="none" viewBox="-1 -1 22 22" x="162" y="256" xmlns="http://www.w3.org/2000/svg">
        <path
            d="M10 1.875C5.52 1.875 1.875 5.52 1.875 10S5.52 18.125 10 18.125 18.125 14.48 18.125 10 14.48 1.875 10 1.875Zm0 1.25A6.866 6.866 0 0 1 16.875 10a6.827 6.827 0 0 1-1.64 4.453l-9.59-9.785A6.844 6.844 0 0 1 10 3.125ZM4.766 5.547l9.59 9.785A6.844 6.844 0 0 1 10 16.875 6.866 6.866 0 0 1 3.125 10c0-1.704.618-3.254 1.64-4.453Z"
            fill="#828282"
        />
    </svg>
    <view id="image-upload-icon" viewBox="0 142 52 52" />
    <svg width="52" height="52" fill="none" viewBox="-1 -1 52 52" y="142" xmlns="http://www.w3.org/2000/svg">
        <rect width="50" height="50" rx="8" fill="#F2F2F2" />
        <path
            d="M35 16.25h-3.946l-2.305-2.503-7.5.006-2.294 2.497H15a2.507 2.507 0 0 0-2.5 2.5v15c0 1.375 1.125 2.5 2.5 2.5h20c1.375 0 2.5-1.125 2.5-2.5v-15c0-1.375-1.125-2.5-2.5-2.5ZM28.75 27.5h-2.5V30a1.25 1.25 0 0 1-2.5 0v-2.5h-2.5a1.25 1.25 0 0 1 0-2.5h2.5v-2.5a1.25 1.25 0 0 1 2.5 0V25h2.5a1.25 1.25 0 0 1 0 2.5Z"
            fill="#A9ABB2"
        />
    </svg>
    <view id="image-user" viewBox="0 256 26 26" />
    <svg width="26" height="26" fill="none" viewBox="-1 -1 26 26" y="256" xmlns="http://www.w3.org/2000/svg">
        <path
            d="M12 3C8.916 3 6.4 5.43 6.4 8.41c0 1.861.984 3.516 2.475 4.49C6.022 14.085 4 16.819 4 20h1.6c0-3.423 2.856-6.182 6.4-6.182 3.544 0 6.4 2.76 6.4 6.182H20c0-3.181-2.022-5.916-4.875-7.1 1.49-.974 2.475-2.629 2.475-4.49C17.6 5.43 15.084 3 12 3Zm0 1.545c2.219 0 4 1.721 4 3.864s-1.781 3.864-4 3.864c-2.219 0-4-1.72-4-3.864 0-2.143 1.781-3.864 4-3.864Z"
            fill="#FC0"
        />
    </svg>
    <view id="image-view-more-catalog" viewBox="263 256 16 16" />
    <svg width="16" height="16" fill="none" viewBox="-1 -1 16 16" x="263" y="256" xmlns="http://www.w3.org/2000/svg">
        <path d="m1 7.017 11.996-.021M6.991 1l5.988 5.979M6.99 13 13 7" stroke="#828282" stroke-width="1.5" stroke-linecap="round" />
    </svg>
    <view id="image-youtube" viewBox="28 228 28 28" />
    <svg width="28" height="28" fill="none" viewBox="-1 -1 28 28" x="28" y="228" xmlns="http://www.w3.org/2000/svg">
        <path
            d="M12.916 3.25c-3.754 0-7.242.276-9.232.705a.917.917 0 0 0-.013.003C2.171 4.305.76 5.412.463 7.147a.93.93 0 0 0-.001.007C.233 8.552 0 10.374 0 13c0 2.621.234 4.395.523 5.866.304 1.684 1.684 2.825 3.206 3.176a.847.847 0 0 0 .022.006c2.077.422 5.466.702 9.22.702 3.754 0 7.145-.28 9.223-.702a.891.891 0 0 0 .022-.006c1.499-.347 2.91-1.454 3.208-3.189a.51.51 0 0 0 .002-.013c.225-1.426.517-3.247.574-5.877a29.06 29.06 0 0 0-.577-5.938c-.302-1.687-1.683-2.83-3.207-3.182a.867.867 0 0 0-.07-.013c-2.028-.294-5.476-.58-9.23-.58Zm0 1.828c3.64 0 7.013.281 8.928.556.941.223 1.689.9 1.836 1.723l.003.016c.274 1.4.542 3.063.543 5.557-.055 2.501-.323 4.18-.548 5.607-.154.889-.874 1.492-1.842 1.718-1.86.377-5.207.667-8.865.667-3.659 0-7.004-.291-8.864-.668-.944-.221-1.695-.901-1.843-1.726a.958.958 0 0 0-.003-.015c-.272-1.384-.488-2.997-.488-5.513 0-2.511.216-4.191.435-5.534.153-.892.874-1.496 1.845-1.723 1.723-.37 5.2-.665 8.863-.665Z"
            fill="currentColor"
        />
        <path d="M10.833 8.666v8.667l1.137-.64 5.309-3.03 1.137-.664-1.137-.663-5.309-3.03-1.137-.64Zm1.517 2.605 3.01 1.728-3.01 1.729V11.27Z" fill="currentColor" />
    </svg>
</svg>